<svg xmlns="http://www.w3.org/2000/svg" version="1.1" xmlns:xlink="http://www.w3.org/1999/xlink" xmlns:svgjs="http://svgjs.dev/svgjs" width="1000" height="623" viewBox="0 0 1000 623"><g transform="matrix(1,0,0,1,-0.6060606060606233,0.2522267206477409)"><svg viewBox="0 0 396 247" data-background-color="#ffffff" preserveAspectRatio="xMidYMid meet" height="623" width="1000" xmlns="http://www.w3.org/2000/svg" xmlns:xlink="http://www.w3.org/1999/xlink"><g id="tight-bounds" transform="matrix(1,0,0,1,0.2400000000000091,-0.09999999999999432)"><svg viewBox="0 0 395.52 247.2" height="247.2" width="395.52"><g><svg></svg></g><g><svg viewBox="0 0 395.52 247.2" height="247.2" width="395.52"><g transform="matrix(1,0,0,1,39.55199999999999,74.29951846292406)"><svg viewBox="0 0 316.416 98.60096307415189" height="98.60096307415189" width="316.416"><g><svg viewBox="0 0 316.416 98.60096307415189" height="98.60096307415189" width="316.416"><g><svg viewBox="0 0 316.416 98.60096307415189" height="98.60096307415189" width="316.416"><g><svg viewBox="0 0 316.416 98.60096307415189" height="98.60096307415189" width="316.416"><g id="textblocktransform"><svg viewBox="0 0 316.416 98.60096307415189" height="98.60096307415189" width="316.416" id="textblock"><g><svg viewBox="0 0 316.416 98.60096307415189" height="98.60096307415189" width="316.416"><g transform="matrix(1,0,0,1,0,0)"><svg width="316.416" viewBox="-0.5 -38.9 167.54 52.9" height="98.60096307415189" data-palette-color="#e8772e"><path d="M8.65 0L3.5 0 3.5-26 8.65-26 8.65-20.85 9.25-20.85Q9.8-23.35 11.33-24.68 12.85-26 15.2-26L15.2-26 16.5-26 16.5-20.75 14.3-20.75Q11.55-20.75 10.1-19.7 8.65-18.65 8.65-16.35L8.65-16.35 8.65 0ZM30.25 0.6L30.25 0.6Q27.8 0.6 25.75-0.2 23.7-1 22.25-2.68 20.8-4.35 19.97-6.9 19.15-9.45 19.15-13L19.15-13Q19.15-16.55 19.9-19.13 20.65-21.7 22.07-23.35 23.5-25 25.47-25.8 27.45-26.6 29.95-26.6L29.95-26.6Q34.9-26.6 37.67-23.35 40.45-20.1 40.45-13L40.45-13 40.45-11.7 24.55-11.7 24.55-10.05Q24.55-6.95 26.12-5.3 27.7-3.65 30.45-3.65L30.45-3.65Q32.8-3.65 34.32-4.7 35.85-5.75 36.9-7.65L36.9-7.65 39.9-4.8Q38.5-2.35 36.12-0.88 33.75 0.6 30.25 0.6ZM29.95-22.5L29.95-22.5Q27.35-22.5 25.95-20.93 24.55-19.35 24.55-16.2L24.55-16.2 24.55-15.15 35-15.15 35-16.2Q35-22.5 29.95-22.5ZM54.8 0.6L54.8 0.6Q49.7 0.6 46.95-2.65 44.2-5.9 44.2-13L44.2-13Q44.2-20.1 46.95-23.35 49.7-26.6 54.8-26.6L54.8-26.6Q58.55-26.6 60.8-24.88 63.05-23.15 64.05-20.3L64.05-20.3 59.8-18.3Q59.34-20.25 58.17-21.28 56.99-22.3 54.8-22.3L54.8-22.3Q49.64-22.3 49.64-16.05L49.64-16.05 49.64-9.95Q49.64-3.7 54.8-3.7L54.8-3.7Q57.05-3.7 58.32-4.78 59.59-5.85 60.3-7.95L60.3-7.95 64.19-5.8Q63.05-2.75 60.72-1.07 58.39 0.6 54.8 0.6ZM88.84 0L85.54 0Q83.64 0 82.59-1.05 81.54-2.1 81.54-4.35L81.54-4.35 80.94-4.35Q80.39-2 78.67-0.7 76.94 0.6 74.44 0.6L74.44 0.6Q70.74 0.6 68.92-1.38 67.09-3.35 67.09-6.95L67.09-6.95Q67.09-10.85 69.59-12.9 72.09-14.95 76.94-14.95L76.94-14.95 81.24-14.95 81.24-17.45Q81.24-19.95 80.14-21.13 79.04-22.3 76.64-22.3L76.64-22.3Q74.79-22.3 73.47-21.5 72.14-20.7 71.04-18.8L71.04-18.8 67.99-21.6Q69.29-23.8 71.52-25.2 73.74-26.6 76.99-26.6L76.99-26.6Q81.69-26.6 84.04-24.33 86.39-22.05 86.39-17.65L86.39-17.65 86.39-4.25 88.84-4.25 88.84 0ZM76.14-3.4L76.14-3.4Q77.24-3.4 78.17-3.75 79.09-4.1 79.77-4.7 80.44-5.3 80.84-6.13 81.24-6.95 81.24-7.9L81.24-7.9 81.24-11.5 77.19-11.5Q72.34-11.5 72.34-8L72.34-8 72.34-6.8Q72.34-5.05 73.37-4.23 74.39-3.4 76.14-3.4ZM93.69 10L93.69-26 98.84-26 98.84-21.75 99.44-21.75Q100.09-24.05 101.77-25.33 103.44-26.6 105.74-26.6L105.74-26.6Q110.34-26.6 112.61-23.08 114.89-19.55 114.89-13L114.89-13Q114.89-6.45 112.61-2.93 110.34 0.6 105.74 0.6L105.74 0.6Q103.44 0.6 101.77-0.68 100.09-1.95 99.44-4.25L99.44-4.25 98.84-4.25 98.84 10 93.69 10ZM103.89-3.8L103.89-3.8Q106.54-3.8 107.99-5.45 109.44-7.1 109.44-10.1L109.44-10.1 109.44-15.9Q109.44-18.9 107.99-20.55 106.54-22.2 103.89-22.2L103.89-22.2Q101.69-22.2 100.27-21.05 98.84-19.9 98.84-17.9L98.84-17.9 98.84-8.1Q98.84-6.1 100.27-4.95 101.69-3.8 103.89-3.8ZM145.69 0L140.34 0 137.64-9.65 125.89-9.65 123.19 0 117.99 0 128.44-34.9 135.19-34.9 145.69 0ZM136.39-14L133.14-25 132.04-30.1 131.39-30.1 130.29-25 127.19-14 136.39-14ZM163.04 0L149.24 0 149.24-4.25 153.49-4.25 153.49-30.65 149.24-30.65 149.24-34.9 163.04-34.9 163.04-30.65 158.79-30.65 158.79-4.25 163.04-4.25 163.04 0Z" opacity="1" transform="matrix(1,0,0,1,0,0)" fill="#e8772e" class="undefined-text-0" data-fill-palette-color="primary" id="text-0"></path></svg></g></svg></g></svg></g></svg></g></svg></g></svg></g></svg></g><g mask="url(#24b1089e-e1e1-4ae6-82f2-ae50f9fead2d)"><g transform="matrix(3.892063492063492, 0, 0, 3.892063492063492, 77.10603174603173, 1)"><svg xmlns="http://www.w3.org/2000/svg" xmlns:xlink="http://www.w3.org/1999/xlink" version="1.1" x="0" y="0" viewBox="4 3.5 62 63" style="enable-background:new 0 0 70 70;" xml:space="preserve" height="63" width="62" class="icon-none" data-fill-palette-color="accent" id="none"><path d="M10.041 44.479c-0.205 0.681-0.317 1.397-0.317 2.135 0 3.164 1.989 5.888 4.836 7.115v0.725c0 4.614 3.938 8.368 8.778 8.368 0.588 0 1.161-0.073 1.725-0.18C26.161 64.938 28.56 66.5 31.417 66.5c2.43 0 4.431-1.154 5.565-3H41c0.552 0 1-0.448 1-1v-4.533c2.845-0.599 5.601-1.739 8.057-3.336l3.206 3.206c0.188 0.188 0.442 0.293 0.707 0.293s0.52-0.105 0.707-0.293l5.66-5.66c0.391-0.391 0.391-1.023 0-1.414l-3.207-3.206c1.597-2.456 2.738-5.211 3.337-8.057H65c0.552 0 1-0.448 1-1v-8c0-0.552-0.448-1-1-1h-4.533c-0.599-2.845-1.74-5.601-3.337-8.056l3.207-3.207c0.391-0.391 0.391-1.023 0-1.414l-5.66-5.66c-0.375-0.375-1.039-0.375-1.414 0l-3.206 3.207C47.602 12.773 44.846 11.632 42 11.034V6.5c0-0.552-0.448-1-1-1h-4.882c-1.183-1.248-2.841-2-4.733-2-2.49 0-4.672 1.317-5.905 3.287h-1.848c-4.835 0-8.768 3.762-8.768 8.385v0.286c-4.188 0.366-7.486 3.887-7.486 8.168 0 1.802 0.594 3.464 1.586 4.818C6.055 29.92 4 33.073 4 36.32 4 40.009 6.529 43.326 10.041 44.479zM40 7.5v4.36c0 0.487 0.351 0.903 0.831 0.986 3.124 0.538 6.158 1.794 8.774 3.633 0.397 0.279 0.938 0.231 1.282-0.112l3.083-3.083 4.246 4.246-3.083 3.083c-0.344 0.344-0.391 0.884-0.112 1.282 1.839 2.618 3.096 5.652 3.634 8.774C58.737 31.149 59.153 31.5 59.64 31.5H64v6h-4.36c-0.487 0-0.903 0.351-0.985 0.831-0.538 3.123-1.794 6.157-3.634 8.774-0.279 0.397-0.232 0.938 0.112 1.282l3.083 3.083-4.246 4.246-3.083-3.083c-0.343-0.342-0.885-0.391-1.282-0.111-2.618 1.839-5.652 3.095-8.774 3.633C40.351 56.237 40 56.653 40 57.14V61.5h-2.207c0.128-0.55 0.202-1.128 0.202-1.737V49.45C45.802 48.933 52 42.435 52 34.5s-6.198-14.433-14.005-14.95v-9.124c0-1.06-0.21-2.045-0.582-2.926H40zM37.995 47.45V21.55C44.699 22.062 50 27.667 50 34.5S44.699 46.938 37.995 47.45zM10.438 29.994c1.409 1.135 3.197 1.818 5.145 1.818 0.552 0 1-0.448 1-1s-0.448-1-1-1c-3.421 0-6.205-2.775-6.205-6.186 0-3.421 2.784-6.205 6.205-6.205 1.654 0 3.207 0.644 4.374 1.813 0.391 0.391 1.023 0.391 1.414 0.002 0.391-0.391 0.392-1.023 0.002-1.415-1.239-1.241-2.808-2.025-4.509-2.291v-0.358c0-3.521 3.036-6.385 6.768-6.385h0.999c-0.134 0.539-0.213 1.1-0.213 1.68 0 0.315 0.023 0.618 0.058 0.921 0.064 0.548 0.563 0.951 1.108 0.878 0.549-0.063 0.942-0.56 0.878-1.108-0.026-0.227-0.044-0.455-0.044-0.691C26.418 7.729 28.646 5.5 31.385 5.5c2.671 0 4.61 2.072 4.61 4.926v49.337c0 2.789-1.883 4.737-4.578 4.737-2.803 0-4.999-2.063-4.999-4.696 0-0.699 0.153-1.407 0.441-2.047 0.228-0.503 0.004-1.096-0.499-1.322-0.503-0.227-1.095-0.003-1.323 0.499-0.411 0.909-0.619 1.875-0.619 2.87 0 0.314 0.029 0.619 0.071 0.92-0.379 0.06-0.764 0.097-1.151 0.098-3.738 0-6.779-2.857-6.778-6.368v-0.146c0.446 0.072 0.902 0.118 1.369 0.118 1.256 0 2.461-0.264 3.583-0.786 0.501-0.232 0.718-0.827 0.486-1.328-0.233-0.501-0.828-0.719-1.329-0.485-0.856 0.397-1.778 0.599-2.74 0.599-3.421 0-6.205-2.607-6.205-5.812 0-3.02 2.506-5.572 5.705-5.812 0.551-0.041 0.964-0.521 0.922-1.072-0.041-0.551-0.52-0.965-1.072-0.922-2.732 0.205-5.077 1.708-6.401 3.835C8.378 41.887 6 39.474 6 36.32 6 33.601 7.881 30.983 10.438 29.994z" fill="#e8772e" data-fill-palette-color="accent"></path><path d="M19.487 25.947c0.479 0.082 1.034 0.131 1.635 0.131 3.172 0 7.606-1.39 8.693-6.828 0.108-0.542-0.243-1.068-0.784-1.177-0.544-0.107-1.069 0.243-1.177 0.784-1.234 6.167-7.753 5.165-8.033 5.118-0.542-0.091-1.059 0.275-1.152 0.818C18.577 25.337 18.943 25.854 19.487 25.947z" fill="#e8772e" data-fill-palette-color="accent"></path><path d="M26.914 44.341c-2.156-1.24-4.37-0.65-4.465-0.624-0.53 0.146-0.839 0.691-0.696 1.222 0.143 0.531 0.692 0.847 1.222 0.707 0.404-0.106 4.013-0.896 5.318 4.05 0.118 0.448 0.523 0.745 0.967 0.745 0.084 0 0.17-0.011 0.256-0.033 0.534-0.141 0.853-0.688 0.711-1.222C29.62 46.886 28.505 45.256 26.914 44.341z" fill="#e8772e" data-fill-palette-color="accent"></path></svg></g></g><mask id="24b1089e-e1e1-4ae6-82f2-ae50f9fead2d"><rect width="640" height="400" fill="white"></rect><g transform="matrix(1,0,0,1,39.55199999999999,74.29951846292406)"><svg viewBox="0 0 316.416 98.60096307415189" height="98.60096307415189" width="316.416"><g><svg viewBox="0 0 316.416 98.60096307415189" height="98.60096307415189" width="316.416"><g><svg viewBox="0 0 316.416 98.60096307415189" height="98.60096307415189" width="316.416"><g><svg viewBox="0 0 316.416 98.60096307415189" height="98.60096307415189" width="316.416"><g id="SvgjsG1002"><svg viewBox="0 0 316.416 98.60096307415189" height="98.60096307415189" width="316.416" id="SvgjsSvg1001"><g><svg viewBox="0 0 316.416 98.60096307415189" height="98.60096307415189" width="316.416"><g transform="matrix(1,0,0,1,0,0)"><svg width="316.416" viewBox="-0.5 -38.9 167.54 52.9" height="98.60096307415189" data-palette-color="#e8772e"><path d="M8.65 0L3.5 0 3.5-26 8.65-26 8.65-20.85 9.25-20.85Q9.8-23.35 11.33-24.68 12.85-26 15.2-26L15.2-26 16.5-26 16.5-20.75 14.3-20.75Q11.55-20.75 10.1-19.7 8.65-18.65 8.65-16.35L8.65-16.35 8.65 0ZM30.25 0.6L30.25 0.6Q27.8 0.6 25.75-0.2 23.7-1 22.25-2.68 20.8-4.35 19.97-6.9 19.15-9.45 19.15-13L19.15-13Q19.15-16.55 19.9-19.13 20.65-21.7 22.07-23.35 23.5-25 25.47-25.8 27.45-26.6 29.95-26.6L29.95-26.6Q34.9-26.6 37.67-23.35 40.45-20.1 40.45-13L40.45-13 40.45-11.7 24.55-11.7 24.55-10.05Q24.55-6.95 26.12-5.3 27.7-3.65 30.45-3.65L30.45-3.65Q32.8-3.65 34.32-4.7 35.85-5.75 36.9-7.65L36.9-7.65 39.9-4.8Q38.5-2.35 36.12-0.88 33.75 0.6 30.25 0.6ZM29.95-22.5L29.95-22.5Q27.35-22.5 25.95-20.93 24.55-19.35 24.55-16.2L24.55-16.2 24.55-15.15 35-15.15 35-16.2Q35-22.5 29.95-22.5ZM54.8 0.6L54.8 0.6Q49.7 0.6 46.95-2.65 44.2-5.9 44.2-13L44.2-13Q44.2-20.1 46.95-23.35 49.7-26.6 54.8-26.6L54.8-26.6Q58.55-26.6 60.8-24.88 63.05-23.15 64.05-20.3L64.05-20.3 59.8-18.3Q59.34-20.25 58.17-21.28 56.99-22.3 54.8-22.3L54.8-22.3Q49.64-22.3 49.64-16.05L49.64-16.05 49.64-9.95Q49.64-3.7 54.8-3.7L54.8-3.7Q57.05-3.7 58.32-4.78 59.59-5.85 60.3-7.95L60.3-7.95 64.19-5.8Q63.05-2.75 60.72-1.07 58.39 0.6 54.8 0.6ZM88.84 0L85.54 0Q83.64 0 82.59-1.05 81.54-2.1 81.54-4.35L81.54-4.35 80.94-4.35Q80.39-2 78.67-0.7 76.94 0.6 74.44 0.6L74.44 0.6Q70.74 0.6 68.92-1.38 67.09-3.35 67.09-6.95L67.09-6.95Q67.09-10.85 69.59-12.9 72.09-14.95 76.94-14.95L76.94-14.95 81.24-14.95 81.24-17.45Q81.24-19.95 80.14-21.13 79.04-22.3 76.64-22.3L76.64-22.3Q74.79-22.3 73.47-21.5 72.14-20.7 71.04-18.8L71.04-18.8 67.99-21.6Q69.29-23.8 71.52-25.2 73.74-26.6 76.99-26.6L76.99-26.6Q81.69-26.6 84.04-24.33 86.39-22.05 86.39-17.65L86.39-17.65 86.39-4.25 88.84-4.25 88.84 0ZM76.14-3.4L76.14-3.4Q77.24-3.4 78.17-3.75 79.09-4.1 79.77-4.7 80.44-5.3 80.84-6.13 81.24-6.95 81.24-7.9L81.24-7.9 81.24-11.5 77.19-11.5Q72.34-11.5 72.34-8L72.34-8 72.34-6.8Q72.34-5.05 73.37-4.23 74.39-3.4 76.14-3.4ZM93.69 10L93.69-26 98.84-26 98.84-21.75 99.44-21.75Q100.09-24.05 101.77-25.33 103.44-26.6 105.74-26.6L105.74-26.6Q110.34-26.6 112.61-23.08 114.89-19.55 114.89-13L114.89-13Q114.89-6.45 112.61-2.93 110.34 0.6 105.74 0.6L105.74 0.6Q103.44 0.6 101.77-0.68 100.09-1.95 99.44-4.25L99.44-4.25 98.84-4.25 98.84 10 93.69 10ZM103.89-3.8L103.89-3.8Q106.54-3.8 107.99-5.45 109.44-7.1 109.44-10.1L109.44-10.1 109.44-15.9Q109.44-18.9 107.99-20.55 106.54-22.2 103.89-22.2L103.89-22.2Q101.69-22.2 100.27-21.05 98.84-19.9 98.84-17.9L98.84-17.9 98.84-8.1Q98.84-6.1 100.27-4.95 101.69-3.8 103.89-3.8ZM145.69 0L140.34 0 137.64-9.65 125.89-9.65 123.19 0 117.99 0 128.44-34.9 135.19-34.9 145.69 0ZM136.39-14L133.14-25 132.04-30.1 131.39-30.1 130.29-25 127.19-14 136.39-14ZM163.04 0L149.24 0 149.24-4.25 153.49-4.25 153.49-30.65 149.24-30.65 149.24-34.9 163.04-34.9 163.04-30.65 158.79-30.65 158.79-4.25 163.04-4.25 163.04 0Z" opacity="1" transform="matrix(1,0,0,1,0,0)" fill="#e8772e" class="undefined-text-0" data-fill-palette-color="primary" id="SvgjsPath1000" stroke-width="7" stroke="black" stroke-linejoin="round"></path></svg></g></svg></g></svg></g></svg></g></svg></g></svg></g></svg></g></mask></svg></g><defs></defs></svg><rect width="395.52" height="247.2" fill="none" stroke="none" visibility="hidden"></rect></g></svg></g></svg>