<?xml version="1.0" encoding="UTF-8"?>
<svg version="1.1" viewBox="0 0 1000 623" xmlns="http://www.w3.org/2000/svg">
<g transform="translate(-.60606 .25223)">
<svg width="1e3" height="623" data-background-color="#ffffff" viewBox="0 0 396 247" xmlns="http://www.w3.org/2000/svg" xmlns:xlink="http://www.w3.org/1999/xlink">
<g transform="translate(.24 -.1)">
<svg width="395.52" height="247.2" viewBox="0 0 395.52 247.2">
<svg/>
<svg width="395.52" height="247.2" viewBox="0 0 395.52 247.2">
<g transform="translate(39.552 74.3)">
<svg width="316.42" height="98.601" viewBox="0 0 316.416 98.60096307415189">
<svg width="316.42" height="98.601" viewBox="0 0 316.416 98.60096307415189">
<svg width="316.42" height="98.601" viewBox="0 0 316.416 98.60096307415189">
<svg width="316.42" height="98.601" viewBox="0 0 316.416 98.60096307415189">
<svg width="316.42" height="98.601" viewBox="0 0 316.416 98.60096307415189">
<svg width="316.42" height="98.601" viewBox="0 0 316.416 98.60096307415189">
<g>
<svg width="316.42" height="98.601" data-palette-color="#e8772e" viewBox="-0.5 -38.9 167.54 52.9">
<path class="undefined-text-0" d="m8.65 0h-5.15v-26h5.15v5.15h0.6q0.55-2.5 2.08-3.83 1.52-1.32 3.87-1.32h1.3v5.25h-2.2q-2.75 0-4.2 1.05t-1.45 3.35v16.35zm21.6 0.6q-2.45 0-4.5-0.8t-3.5-2.48q-1.45-1.67-2.28-4.22-0.82-2.55-0.82-6.1t0.75-6.13q0.75-2.57 2.17-4.22 1.43-1.65 3.4-2.45 1.98-0.8 4.48-0.8 4.95 0 7.72 3.25 2.78 3.25 2.78 10.35v1.3h-15.9v1.65q0 3.1 1.57 4.75 1.58 1.65 4.33 1.65 2.35 0 3.87-1.05 1.53-1.05 2.58-2.95l3 2.85q-1.4 2.45-3.78 3.92-2.37 1.48-5.87 1.48zm-0.3-23.1q-2.6 0-4 1.57-1.4 1.58-1.4 4.73v1.05h10.45v-1.05q0-6.3-5.05-6.3zm24.85 23.1q-5.1 0-7.85-3.25t-2.75-10.35 2.75-10.35 7.85-3.25q3.75 0 6 1.72 2.25 1.73 3.25 4.58l-4.25 2q-0.46-1.95-1.63-2.98-1.18-1.02-3.37-1.02-5.16 0-5.16 6.25v6.1q0 6.25 5.16 6.25 2.25 0 3.52-1.08 1.27-1.07 1.98-3.17l3.89 2.15q-1.14 3.05-3.47 4.73-2.33 1.67-5.92 1.67zm34.04-0.6h-3.3q-1.9 0-2.95-1.05t-1.05-3.3h-0.6q-0.55 2.35-2.27 3.65-1.73 1.3-4.23 1.3-3.7 0-5.52-1.98-1.83-1.97-1.83-5.57 0-3.9 2.5-5.95t7.35-2.05h4.3v-2.5q0-2.5-1.1-3.68-1.1-1.17-3.5-1.17-1.85 0-3.17 0.8-1.33 0.8-2.43 2.7l-3.05-2.8q1.3-2.2 3.53-3.6 2.22-1.4 5.47-1.4 4.7 0 7.05 2.27 2.35 2.28 2.35 6.68v13.4h2.45v4.25zm-12.7-3.4q1.1 0 2.03-0.35 0.92-0.35 1.6-0.95 0.67-0.6 1.07-1.43 0.4-0.82 0.4-1.77v-3.6h-4.05q-4.85 0-4.85 3.5v1.2q0 1.75 1.03 2.57 1.02 0.83 2.77 0.83zm17.55 13.4v-36h5.15v4.25h0.6q0.65-2.3 2.33-3.58 1.67-1.27 3.97-1.27 4.6 0 6.87 3.52 2.28 3.53 2.28 10.08t-2.28 10.07q-2.27 3.53-6.87 3.53-2.3 0-3.97-1.28-1.68-1.27-2.33-3.57h-0.6v14.25h-5.15zm10.2-13.8q2.65 0 4.1-1.65t1.45-4.65v-5.8q0-3-1.45-4.65t-4.1-1.65q-2.2 0-3.62 1.15-1.43 1.15-1.43 3.15v9.8q0 2 1.43 3.15 1.42 1.15 3.62 1.15zm41.8 3.8h-5.35l-2.7-9.65h-11.75l-2.7 9.65h-5.2l10.45-34.9h6.75l10.5 34.9zm-9.3-14-3.25-11-1.1-5.1h-0.65l-1.1 5.1-3.1 11h9.2zm26.65 14h-13.8v-4.25h4.25v-26.4h-4.25v-4.25h13.8v4.25h-4.25v26.4h4.25v4.25z" fill="#e8772e" data-fill-palette-color="primary"/>
</svg>
</g>
</svg>
</svg>
</svg>
</svg>
</svg>
</svg>
</g>
<g mask="url(#a)">
<g transform="matrix(3.8921 0 0 3.8921 77.106 1)">
<svg class="icon-none" width="62" height="63" enable-background="new 0 0 70 70" fill="#e8772e" data-fill-palette-color="accent" version="1.1" viewBox="4 3.5 62 63" xml:space="preserve" xmlns="http://www.w3.org/2000/svg" xmlns:xlink="http://www.w3.org/1999/xlink"><path d="M10.041 44.479c-0.205 0.681-0.317 1.397-0.317 2.135 0 3.164 1.989 5.888 4.836 7.115v0.725c0 4.614 3.938 8.368 8.778 8.368 0.588 0 1.161-0.073 1.725-0.18C26.161 64.938 28.56 66.5 31.417 66.5c2.43 0 4.431-1.154 5.565-3H41c0.552 0 1-0.448 1-1v-4.533c2.845-0.599 5.601-1.739 8.057-3.336l3.206 3.206c0.188 0.188 0.442 0.293 0.707 0.293s0.52-0.105 0.707-0.293l5.66-5.66c0.391-0.391 0.391-1.023 0-1.414l-3.207-3.206c1.597-2.456 2.738-5.211 3.337-8.057H65c0.552 0 1-0.448 1-1v-8c0-0.552-0.448-1-1-1h-4.533c-0.599-2.845-1.74-5.601-3.337-8.056l3.207-3.207c0.391-0.391 0.391-1.023 0-1.414l-5.66-5.66c-0.375-0.375-1.039-0.375-1.414 0l-3.206 3.207C47.602 12.773 44.846 11.632 42 11.034V6.5c0-0.552-0.448-1-1-1h-4.882c-1.183-1.248-2.841-2-4.733-2-2.49 0-4.672 1.317-5.905 3.287h-1.848c-4.835 0-8.768 3.762-8.768 8.385v0.286c-4.188 0.366-7.486 3.887-7.486 8.168 0 1.802 0.594 3.464 1.586 4.818C6.055 29.92 4 33.073 4 36.32 4 40.009 6.529 43.326 10.041 44.479zM40 7.5v4.36c0 0.487 0.351 0.903 0.831 0.986 3.124 0.538 6.158 1.794 8.774 3.633 0.397 0.279 0.938 0.231 1.282-0.112l3.083-3.083 4.246 4.246-3.083 3.083c-0.344 0.344-0.391 0.884-0.112 1.282 1.839 2.618 3.096 5.652 3.634 8.774C58.737 31.149 59.153 31.5 59.64 31.5H64v6h-4.36c-0.487 0-0.903 0.351-0.985 0.831-0.538 3.123-1.794 6.157-3.634 8.774-0.279 0.397-0.232 0.938 0.112 1.282l3.083 3.083-4.246 4.246-3.083-3.083c-0.343-0.342-0.885-0.391-1.282-0.111-2.618 1.839-5.652 3.095-8.774 3.633C40.351 56.237 40 56.653 40 57.14V61.5h-2.207c0.128-0.55 0.202-1.128 0.202-1.737V49.45C45.802 48.933 52 42.435 52 34.5s-6.198-14.433-14.005-14.95v-9.124c0-1.06-0.21-2.045-0.582-2.926H40zM37.995 47.45V21.55C44.699 22.062 50 27.667 50 34.5S44.699 46.938 37.995 47.45zM10.438 29.994c1.409 1.135 3.197 1.818 5.145 1.818 0.552 0 1-0.448 1-1s-0.448-1-1-1c-3.421 0-6.205-2.775-6.205-6.186 0-3.421 2.784-6.205 6.205-6.205 1.654 0 3.207 0.644 4.374 1.813 0.391 0.391 1.023 0.391 1.414 0.002 0.391-0.391 0.392-1.023 0.002-1.415-1.239-1.241-2.808-2.025-4.509-2.291v-0.358c0-3.521 3.036-6.385 6.768-6.385h0.999c-0.134 0.539-0.213 1.1-0.213 1.68 0 0.315 0.023 0.618 0.058 0.921 0.064 0.548 0.563 0.951 1.108 0.878 0.549-0.063 0.942-0.56 0.878-1.108-0.026-0.227-0.044-0.455-0.044-0.691C26.418 7.729 28.646 5.5 31.385 5.5c2.671 0 4.61 2.072 4.61 4.926v49.337c0 2.789-1.883 4.737-4.578 4.737-2.803 0-4.999-2.063-4.999-4.696 0-0.699 0.153-1.407 0.441-2.047 0.228-0.503 0.004-1.096-0.499-1.322-0.503-0.227-1.095-0.003-1.323 0.499-0.411 0.909-0.619 1.875-0.619 2.87 0 0.314 0.029 0.619 0.071 0.92-0.379 0.06-0.764 0.097-1.151 0.098-3.738 0-6.779-2.857-6.778-6.368v-0.146c0.446 0.072 0.902 0.118 1.369 0.118 1.256 0 2.461-0.264 3.583-0.786 0.501-0.232 0.718-0.827 0.486-1.328-0.233-0.501-0.828-0.719-1.329-0.485-0.856 0.397-1.778 0.599-2.74 0.599-3.421 0-6.205-2.607-6.205-5.812 0-3.02 2.506-5.572 5.705-5.812 0.551-0.041 0.964-0.521 0.922-1.072-0.041-0.551-0.52-0.965-1.072-0.922-2.732 0.205-5.077 1.708-6.401 3.835C8.378 41.887 6 39.474 6 36.32 6 33.601 7.881 30.983 10.438 29.994z" data-fill-palette-color="accent"/><path d="m19.487 25.947c0.479 0.082 1.034 0.131 1.635 0.131 3.172 0 7.606-1.39 8.693-6.828 0.108-0.542-0.243-1.068-0.784-1.177-0.544-0.107-1.069 0.243-1.177 0.784-1.234 6.167-7.753 5.165-8.033 5.118-0.542-0.091-1.059 0.275-1.152 0.818-0.092 0.544 0.274 1.061 0.818 1.154z" data-fill-palette-color="accent"/><path d="m26.914 44.341c-2.156-1.24-4.37-0.65-4.465-0.624-0.53 0.146-0.839 0.691-0.696 1.222s0.692 0.847 1.222 0.707c0.404-0.106 4.013-0.896 5.318 4.05 0.118 0.448 0.523 0.745 0.967 0.745 0.084 0 0.17-0.011 0.256-0.033 0.534-0.141 0.853-0.688 0.711-1.222-0.607-2.3-1.722-3.93-3.313-4.845z" data-fill-palette-color="accent"/></svg>
</g>
</g>
<mask id="a">
<rect width="640" height="400" fill="#fff"/>
<g transform="translate(39.552 74.3)">
<svg width="316.42" height="98.601" viewBox="0 0 316.416 98.60096307415189">
<svg width="316.42" height="98.601" viewBox="0 0 316.416 98.60096307415189">
<svg width="316.42" height="98.601" viewBox="0 0 316.416 98.60096307415189">
<svg width="316.42" height="98.601" viewBox="0 0 316.416 98.60096307415189">
<svg width="316.42" height="98.601" viewBox="0 0 316.416 98.60096307415189">
<svg width="316.42" height="98.601" viewBox="0 0 316.416 98.60096307415189">
<g>
<svg width="316.42" height="98.601" data-palette-color="#e8772e" viewBox="-0.5 -38.9 167.54 52.9">
<path class="undefined-text-0" d="m8.65 0h-5.15v-26h5.15v5.15h0.6q0.55-2.5 2.08-3.83 1.52-1.32 3.87-1.32h1.3v5.25h-2.2q-2.75 0-4.2 1.05t-1.45 3.35v16.35zm21.6 0.6q-2.45 0-4.5-0.8t-3.5-2.48q-1.45-1.67-2.28-4.22-0.82-2.55-0.82-6.1t0.75-6.13q0.75-2.57 2.17-4.22 1.43-1.65 3.4-2.45 1.98-0.8 4.48-0.8 4.95 0 7.72 3.25 2.78 3.25 2.78 10.35v1.3h-15.9v1.65q0 3.1 1.57 4.75 1.58 1.65 4.33 1.65 2.35 0 3.87-1.05 1.53-1.05 2.58-2.95l3 2.85q-1.4 2.45-3.78 3.92-2.37 1.48-5.87 1.48zm-0.3-23.1q-2.6 0-4 1.57-1.4 1.58-1.4 4.73v1.05h10.45v-1.05q0-6.3-5.05-6.3zm24.85 23.1q-5.1 0-7.85-3.25t-2.75-10.35 2.75-10.35 7.85-3.25q3.75 0 6 1.72 2.25 1.73 3.25 4.58l-4.25 2q-0.46-1.95-1.63-2.98-1.18-1.02-3.37-1.02-5.16 0-5.16 6.25v6.1q0 6.25 5.16 6.25 2.25 0 3.52-1.08 1.27-1.07 1.98-3.17l3.89 2.15q-1.14 3.05-3.47 4.73-2.33 1.67-5.92 1.67zm34.04-0.6h-3.3q-1.9 0-2.95-1.05t-1.05-3.3h-0.6q-0.55 2.35-2.27 3.65-1.73 1.3-4.23 1.3-3.7 0-5.52-1.98-1.83-1.97-1.83-5.57 0-3.9 2.5-5.95t7.35-2.05h4.3v-2.5q0-2.5-1.1-3.68-1.1-1.17-3.5-1.17-1.85 0-3.17 0.8-1.33 0.8-2.43 2.7l-3.05-2.8q1.3-2.2 3.53-3.6 2.22-1.4 5.47-1.4 4.7 0 7.05 2.27 2.35 2.28 2.35 6.68v13.4h2.45v4.25zm-12.7-3.4q1.1 0 2.03-0.35 0.92-0.35 1.6-0.95 0.67-0.6 1.07-1.43 0.4-0.82 0.4-1.77v-3.6h-4.05q-4.85 0-4.85 3.5v1.2q0 1.75 1.03 2.57 1.02 0.83 2.77 0.83zm17.55 13.4v-36h5.15v4.25h0.6q0.65-2.3 2.33-3.58 1.67-1.27 3.97-1.27 4.6 0 6.87 3.52 2.28 3.53 2.28 10.08t-2.28 10.07q-2.27 3.53-6.87 3.53-2.3 0-3.97-1.28-1.68-1.27-2.33-3.57h-0.6v14.25h-5.15zm10.2-13.8q2.65 0 4.1-1.65t1.45-4.65v-5.8q0-3-1.45-4.65t-4.1-1.65q-2.2 0-3.62 1.15-1.43 1.15-1.43 3.15v9.8q0 2 1.43 3.15 1.42 1.15 3.62 1.15zm41.8 3.8h-5.35l-2.7-9.65h-11.75l-2.7 9.65h-5.2l10.45-34.9h6.75l10.5 34.9zm-9.3-14-3.25-11-1.1-5.1h-0.65l-1.1 5.1-3.1 11h9.2zm26.65 14h-13.8v-4.25h4.25v-26.4h-4.25v-4.25h13.8v4.25h-4.25v26.4h4.25v4.25z" fill="#e8772e" stroke="#000" stroke-linejoin="round" stroke-width="7" data-fill-palette-color="primary"/>
</svg>
</g>
</svg>
</svg>
</svg>
</svg>
</svg>
</svg>
</g>
</mask>
</svg>
</svg>
<rect width="395.52" height="247.2" fill="none" visibility="hidden"/>
</g>
</svg>
</g>
</svg>
